<svg width="96" height="96" viewBox="-6 -14 96 96" fill="none" xmlns="http://www.w3.org/2000/svg">
<path d="M64.7664 8.71179C60.1346 10.3604 55.9673 17.2492 54.4626 20.4875C41.9207 1.88189 19.0779 -0.806902 9.2243 0.174405C29.9299 30.1262 7.45794 43.6682 31.6963 46.0996C29.9692 51.9875 9.84579 60.1978 0 63.5669C79.486 80.4454 71.4393 30.3987 71.6355 27.651C71.8318 24.9034 74.3832 19.5062 77.1308 19.3099C79.329 19.1529 82.6262 17.8052 84 17.151C83.1495 16.5623 78.2793 14.357 77.1308 12.8551C75.8551 11.1869 74.5794 9.61682 72.715 8.71179C71.9953 8.02487 69.3981 7.06319 64.7664 8.71179Z" fill="#5F8DED"/>
</svg>
